<svg width="23" height="23" viewBox="0 0 23 23" fill="none" xmlns="http://www.w3.org/2000/svg">
<g clip-path="url(#clip0_8543_31)">
<path d="M16.3086 22.1411L17.5781 19.9439C17.7539 19.6411 17.6562 19.2993 17.3633 19.1333C17.0703 18.9575 16.7383 19.0552 16.5625 19.3579L15.2734 21.5747C15.1172 21.8579 15.1953 22.1997 15.498 22.3657C15.791 22.5317 16.1426 22.4341 16.3086 22.1411Z" fill="white"/>
<path d="M13.252 19.3971L14.5215 17.19C14.6973 16.8971 14.5996 16.5552 14.3066 16.3794C14.0137 16.2134 13.6816 16.3013 13.5059 16.604L12.2266 18.8306C12.0605 19.104 12.1387 19.4459 12.4414 19.6217C12.7344 19.7877 13.0859 19.6803 13.252 19.3971Z" fill="white"/>
<path d="M8.53516 22.1509L9.80469 19.9536C9.98047 19.6509 9.89258 19.3091 9.59961 19.1431C9.29688 18.9673 8.96484 19.0649 8.78906 19.3677L7.50977 21.5845C7.34375 21.8677 7.43164 22.2095 7.72461 22.3755C8.01758 22.5415 8.36914 22.4439 8.53516 22.1509Z" fill="white"/>
<path d="M5.47852 19.4068L6.74805 17.1998C6.93359 16.9068 6.83594 16.565 6.54297 16.3893C6.25 16.2232 5.91797 16.3111 5.73242 16.6139L4.45312 18.8404C4.28711 19.1139 4.375 19.4557 4.67773 19.6315C4.96094 19.7975 5.3125 19.69 5.47852 19.4068Z" fill="white"/>
<path d="M5.22461 14.8364H17.3438C20.5469 14.8364 22.9297 12.4048 22.9297 9.39698C22.9297 6.28174 20.3906 4.00635 17.0801 4.00635C15.8594 1.59423 13.5938 0.0415039 10.7715 0.0415039C7.09961 0.0415039 4.07227 2.92236 3.75 6.54541C1.98242 7.06298 0.634766 8.5962 0.634766 10.6567C0.634766 12.9712 2.31445 14.8364 5.22461 14.8364ZM5.20508 13.2739C3.20312 13.2739 2.19727 12.1509 2.19727 10.7056C2.19727 9.53369 2.88086 8.47901 4.54102 8.03956C5.07812 7.89307 5.27344 7.63917 5.32227 7.09229C5.54688 3.89893 7.93945 1.604 10.7715 1.604C12.9688 1.604 14.6973 2.81494 15.752 4.97315C15.9766 5.45167 16.2695 5.61768 16.8457 5.61768C19.7363 5.61768 21.3672 7.35596 21.3672 9.43604C21.3672 11.5649 19.668 13.2739 17.4414 13.2739H5.20508Z" fill="white"/>
</g>
<defs>
<clipPath id="clip0_8543_31">
<rect width="22.9297" height="22.4563" fill="white"/>
</clipPath>
</defs>
</svg>
