<?xml version="1.0" encoding="UTF-8"?>
<svg width="14px" height="14px" viewBox="0 0 14 14" version="1.1" xmlns="http://www.w3.org/2000/svg" xmlns:xlink="http://www.w3.org/1999/xlink">
    <title>基础_关闭</title>
    <g id="视觉稿" stroke="none" stroke-width="1" fill="none" fill-rule="evenodd">
        <g id="首页" transform="translate(-1381.000000, -104.000000)" fill="#1F1F1F" fill-rule="nonzero">
            <g id="容器-281" transform="translate(24.000000, 72.000000)">
                <g id="Popconfirm-气泡确认" transform="translate(1089.904297, 16.969666)">
                    <g id="容器-11" transform="translate(16.000000, 10.000000)">
                        <g id="基础_关闭" transform="translate(246.095703, 0.000000)">
                            <path d="M17.5714373,5.78570557 C17.7419336,5.78570557 17.9054469,5.85343492 18.0260059,5.97399403 C18.146565,6.09455311 18.2142944,6.25806633 18.2142944,6.42856264 C18.2142944,6.59905893 18.146565,6.76257223 18.0258738,6.88326347 L12.9087208,11.9997056 L18.0254593,17.1163073 C18.1465626,17.2374105 18.2142916,17.4009237 18.2142916,17.5714197 C18.2142916,17.7419167 18.1465626,17.9054298 18.0260038,18.0259886 C17.9054451,18.1465473 17.7419319,18.2142773 17.571435,18.2142773 C17.4350382,18.2142773 17.3031104,18.1709301 17.1940691,18.0918652 L17.1168671,18.0259886 L11.9997208,12.9087056 L6.88314819,18.0259886 L6.80594619,18.0918652 C6.69690487,18.1709301 6.56497707,18.2142773 6.42858028,18.2142773 C6.25808334,18.2142773 6.09457016,18.1465473 5.97401142,18.0259886 C5.85345268,17.9054298 5.78572369,17.7419167 5.78572369,17.5714197 C5.78572369,17.4009237 5.85345268,17.2374105 5.97455597,17.1163073 L11.0907208,11.9997056 L5.97414151,6.88326347 C5.85345028,6.76257223 5.78572083,6.59905893 5.78572083,6.42856264 C5.78572083,6.25806633 5.85345023,6.09455311 5.97400935,5.97399403 C6.0945684,5.85343492 6.25808164,5.78570557 6.42857796,5.78570557 C6.5990743,5.78570557 6.76258749,5.85343497 6.88327873,5.9741262 L11.9997208,11.0907056 L17.1167365,5.9741262 C17.2132895,5.87757322 17.3372486,5.8149158 17.4702642,5.79371495 Z" id="shape"></path>
                        </g>
                    </g>
                </g>
            </g>
        </g>
    </g>
</svg>