<svg xmlns="http://www.w3.org/2000/svg" xmlns:xlink="http://www.w3.org/1999/xlink" fill="none" version="1.1" width="7" height="4" viewBox="0 0 7 4"><g><path d="M6.85337,0.8537410000000001L6.85355,0.853553Q6.92388,0.783227,6.96194,0.691342Q7,0.5994562,7,0.5Q7,0.4005438,6.96194,0.308658Q6.92388,0.216773,6.85355,0.146447Q6.78323,0.07612000000000002,6.69134,0.03805999999999998Q6.59946,0,6.5,0Q6.40054,0,6.30866,0.03805999999999998Q6.21677,0.07612000000000002,6.14645,0.146447L6.14626,0.146634L3.5,2.79289L0.853613,0.14650600000000003L0.853553,0.146447Q0.783227,0.07612000000000002,0.691342,0.03805999999999998Q0.5994562,0,0.5,0Q0.4005438,0,0.308658,0.03805999999999998Q0.216773,0.07612000000000002,0.146447,0.146447Q0.07612000000000002,0.216773,0.03805999999999998,0.308658Q0,0.4005438,0,0.5Q0,0.5994562,0.03805999999999998,0.691342Q0.07612000000000002,0.783227,0.146447,0.853553L0.14650600000000003,0.853613L3.14645,3.85355Q3.21677,3.92388,3.30866,3.96194Q3.40054,4,3.5,4Q3.59946,4,3.69134,3.96194Q3.78323,3.92388,3.85355,3.85355L6.85337,0.8537410000000001Z" fill-rule="evenodd" fill="#1F1F1F" fill-opacity="1"/></g></svg>