<svg xmlns="http://www.w3.org/2000/svg" xmlns:xlink="http://www.w3.org/1999/xlink" fill="none" version="1.1" width="28.65234375" height="28" viewBox="0 0 28.65234375 28"><g><g transform="matrix(0.7880106568336487,-0.6156615018844604,0.6156615018844604,0.7880106568336487,-8.667906457014283,2.9844759932308307)"><g transform="matrix(0.6962296366691589,0.7177755236625671,-0.7177755236625671,0.6962296366691589,20.302784515608323,-7.652630766100515)"><path d="M23.44452667236328,21.662370681762695L20.69452667236328,21.662370681762695L20.69452667236328,24.412370681762695C20.69452667236328,24.826580681762696,20.358736672363282,25.162370681762695,19.94452667236328,25.162370681762695C19.53031267236328,25.162370681762695,19.19452667236328,24.826580681762696,19.19452667236328,24.412370681762695L19.19452667236328,20.912370681762695C19.19452667236328,20.498156681762694,19.53031267236328,20.162370681762695,19.94452667236328,20.162370681762695L23.44452667236328,20.162370681762695C23.858736672363282,20.162370681762695,24.19452667236328,20.498156681762694,24.19452667236328,20.912370681762695C24.19452667236328,21.326580681762696,23.858736672363282,21.662370681762695,23.44452667236328,21.662370681762695Z" fill-rule="evenodd" fill="#FFFFFF" fill-opacity="1"/></g><g transform="matrix(-0.5610119700431824,-0.8277698159217834,0.8277698159217834,-0.5610119700431824,-15.566962304590703,39.93493900867068)"><path d="M7.0548787117004395,25.595359802246094L4.3048787117004395,25.595359802246094L4.3048787117004395,28.345359802246094C4.3048787117004395,28.759569802246094,3.969088711700439,29.095359802246094,3.5548787117004395,29.095359802246094C3.1406647117004396,29.095359802246094,2.8048787117004395,28.759569802246094,2.8048787117004395,28.345359802246094L2.8048787117004395,24.845359802246094C2.8048787117004395,24.431145802246093,3.1406647117004396,24.095359802246094,3.5548787117004395,24.095359802246094L7.0548787117004395,24.095359802246094C7.469088711700439,24.095359802246094,7.8048787117004395,24.431145802246093,7.8048787117004395,24.845359802246094C7.8048787117004395,25.259569802246094,7.469088711700439,25.595359802246094,7.0548787117004395,25.595359802246094Z" fill-rule="evenodd" fill="#FFFFFF" fill-opacity="1"/></g><g><path d="M19.68127508010864,25.236456216573714Q20.15217508010864,23.594586216573717,19.971375080108643,21.890026216573716C19.950375080108643,21.692026216573716,19.851575080108642,21.510676216573714,19.696675080108644,21.385876216573713C19.374075080108643,21.125986216573715,18.901275080108643,21.177316216573715,18.640575080108643,21.500526216573714C18.544675080108643,21.619506216573715,18.487875080108644,21.763886216573717,18.476075080108643,21.914226216573716Q18.525275080108642,22.348096216573715,18.522875080108644,22.799386216573716Q18.540075080108643,24.134956216573713,18.09157508010864,25.334156216573717Q17.579875080108643,26.761756216573716,16.462575080108643,27.889956216573715Q15.425075080108643,28.978956216573714,14.095675080108643,29.532456216573713Q12.880175080108643,30.057956216573714,11.499695080108642,30.092756216573715Q9.911315080108643,30.162456216573716,8.514075080108643,29.584056216573714Q7.224375080108643,29.072156216573717,6.188995080108643,28.048556216573715Q5.927005080108643,27.798756216573715,5.696235080108643,27.531756216573715C5.575715080108642,27.431956216573717,5.425985080108642,27.371756216573715,5.267635080108643,27.361156216573715C5.0688550801086425,27.347956216573714,4.872775080108642,27.414256216573715,4.722545080108643,27.545356216573715C4.4096950801086425,27.818356216573715,4.3770150801086425,28.292556216573715,4.649555080108643,28.604556216573716Q4.850295080108642,28.834256216573714,5.063345080108642,29.047356216573718Q5.388875080108642,29.370556216573718,5.752405080108643,29.663456216573714Q6.203925080108643,30.027256216573715,6.688715080108643,30.323856216573716Q7.0380050801086425,30.535656216573717,7.410255080108643,30.716356216573715Q8.945195080108643,31.461156216573716,10.656185080108642,31.574956216573714Q12.367175080108643,31.688656216573715,13.990275080108642,31.153856216573715Q14.621775080108643,30.945656216573717,15.205775080108642,30.650256216573716Q15.300275080108642,30.602256216573714,15.393975080108643,30.551956216573714Q15.455775080108642,30.518756216573717,15.516975080108642,30.484656216573715Q16.312375080108644,30.040456216573716,17.015575080108643,29.426756216573715Q17.241075080108644,29.229856216573715,17.450575080108642,29.021356216573714Q17.777275080108645,28.692856216573716,18.073275080108644,28.325856216573715Q19.19337508010864,26.937156216573715,19.68127508010864,25.236456216573714ZM5.041155080108643,16.677356216573713Q5.262145080108643,16.455646216573715,5.501095080108643,16.247106216573716Q6.845265080108643,15.074016216573716,8.526325080108641,14.520030216573716Q10.149465080108643,13.985139416573714,11.860445080108642,14.098903316573715Q13.571475080108643,14.212665216573715,15.106375080108643,14.957534216573714Q16.00937508010864,15.395746216573714,16.777275080108645,16.017516216573714C17.089775080108645,16.279236216573715,17.135775080108644,16.744656216573716,16.878075080108644,17.064066216573714C16.752875080108645,17.219276216573714,16.571375080108645,17.318556216573715,16.37327508010864,17.340056216573714C16.207475080108644,17.358056216573715,16.041475080108643,17.320306216573716,15.900975080108642,17.234306216573714Q15.105375080108642,16.560156216573716,14.173375080108643,16.160326216573715Q12.655375080108643,15.483516216573715,10.907995080108643,15.584566216573716Q9.637895080108642,15.634706216573715,8.508805080108644,16.104116216573715Q7.1226050801086425,16.659406216573714,6.049225080108643,17.788746216573713Q4.908585080108642,18.942536216573714,4.400535080108643,20.409166216573716Q4.049705080108643,21.380486216573715,4.002355080108643,22.440636216573715C3.9714950801086424,22.606626216573716,3.8855850801086427,22.758176216573716,3.757215080108643,22.870206216573713C3.4443630801086424,23.143236216573715,2.9698110801086424,23.111686216573716,2.6972720801086427,22.799736216573713C2.5803214801086427,22.665866216573715,2.5153053701086425,22.495316216573713,2.5125596171086424,22.318796216573716Q2.5699541801086427,21.367036216573716,2.8372390801086427,20.435296216573715Q3.3251190801086423,18.734576216573714,4.445165080108643,17.345896216573713Q4.729055080108642,16.993916216573716,5.041155080108643,16.677356216573713Z" fill-rule="evenodd" fill="#FFFFFF" fill-opacity="1"/></g></g></g></svg>