<?xml version="1.0" encoding="UTF-8"?>
<svg width="20px" height="20px" viewBox="0 0 20 20" version="1.1" xmlns="http://www.w3.org/2000/svg" xmlns:xlink="http://www.w3.org/1999/xlink">
    <title>工具栏_旺旺</title>
    <g id="视觉稿" stroke="none" stroke-width="1" fill="none" fill-rule="evenodd">
        <g id="容器-286" transform="translate(-1262.000000, -38.000000)" fill="#1F1F1F" fill-rule="nonzero">
            <g id="固定模块" transform="translate(24.000000, 24.000000)">
                <g id="通知" transform="translate(1224.000000, 0.000000)">
                    <g id="工具栏_旺旺" transform="translate(10.000000, 10.000000)">
                        <path d="M14,4.75 C15.2542737,4.75 16.4545231,4.99240627 17.6007481,5.47721881 C18.7074935,5.94533322 19.6874901,6.60601433 20.5407381,7.45926213 C21.3939861,8.31251184 22.0546672,9.2925086 22.5227814,10.3992524 C23.0075938,11.5454783 23.25,12.7457275 23.25,14 C23.25,15.2542731 23.0075938,16.4545225 22.5227814,17.6007481 C22.0546697,18.7074922 21.393988,19.6874892 20.5407362,20.5407391 C19.6874882,21.3939864 18.7074912,22.0546672 17.6007452,22.5227814 C16.4545209,23.0075938 15.2542712,23.25 13.9999962,23.25 C12.7457263,23.25 11.5454782,23.0075938 10.3992519,22.5227814 C9.29251099,22.054671 8.31251431,21.3939892 7.45926189,20.5407362 C6.60601457,19.6874882 5.94533366,18.7074912 5.47721916,17.6007452 C4.99240639,16.4545196 4.75,15.2542699 4.75,13.9999962 C4.75,12.7457256 4.99240621,11.5454772 5.47721863,10.399251 C5.61235579,10.0797513 5.83586669,9.65654723 6.14775133,9.12963867 L5.44113457,6.35293388 C5.33898121,5.95151436 5.58158433,5.54328799 5.98300374,5.44113463 C6.10437942,5.41024691 6.23155797,5.41024691 6.35293365,5.44113463 L9.12963867,6.14775133 C9.65654786,5.83586657 10.0797524,5.61235569 10.3992524,5.47721869 C11.5454777,4.99240623 12.7457269,4.75 14,4.75 Z M14,6.25 C12.9485121,6.25 11.9430388,6.45290852 10.9835801,6.85872555 C10.6782978,6.98784892 10.2294922,7.23245303 9.63716316,7.59253788 C9.46496964,7.69721675 9.25789499,7.72819829 9.06260395,7.67850065 L7.20604229,7.20604229 L7.67850065,9.06260395 C7.72819829,9.25789499 7.69721675,9.46496964 7.59253788,9.63716364 C7.23245239,10.2294939 6.98784828,10.678299 6.85872555,10.9835787 C6.45290852,11.9430386 6.25,12.9485111 6.25,13.9999962 C6.25,16.1401024 7.00664075,17.9667959 8.51992226,19.4800768 C10.0332038,20.9933589 11.8598951,21.75 13.9999962,21.75 C16.1401024,21.75 17.9667959,20.9933592 19.4800768,19.4800777 C20.9933589,17.9667962 21.75,16.1401037 21.75,14 C21.75,11.859897 20.9933596,10.0332044 19.4800787,8.51992226 C17.9667991,7.00664075 16.1401062,6.25 14,6.25 Z M12.5,10.625 C12.9832492,10.625 13.375,11.0167508 13.375,11.5 L13.375,13.5 C13.375,13.9832492 12.9832492,14.375 12.5,14.375 C12.0167508,14.375 11.625,13.9832492 11.625,13.5 L11.625,11.5 C11.625,11.0167508 12.0167508,10.625 12.5,10.625 Z M17.5,10.625 C17.9832492,10.625 18.375,11.0167508 18.375,11.5 L18.375,13.5 C18.375,13.9832492 17.9832492,14.375 17.5,14.375 C17.0167508,14.375 16.625,13.9832492 16.625,13.5 L16.625,11.5 C16.625,11.0167508 17.0167508,10.625 17.5,10.625 Z" id="shape"></path>
                    </g>
                </g>
            </g>
        </g>
    </g>
</svg>