<svg width="21" height="24" viewBox="0 0 21 24" fill="none" xmlns="http://www.w3.org/2000/svg">
<g clip-path="url(#clip0_8543_123)">
<path d="M14.4139 0.947266L14.4041 2.43164L15.5858 1.74805C15.8397 1.60156 16.1326 1.66016 16.2791 1.9043C16.4256 2.16797 16.3182 2.44141 16.0447 2.60742L14.3943 3.56445L14.365 6.96289L17.2752 5.25391L17.285 3.35938C17.285 3.02734 17.4705 2.80273 17.783 2.80273C18.0565 2.80273 18.2615 3.02734 18.2615 3.33008V4.67773L19.5897 3.90625C19.8533 3.75 20.1854 3.80859 20.3318 4.08203C20.4979 4.36523 20.3904 4.66797 20.0877 4.84375L18.7791 5.58594L19.9608 6.26953C20.2049 6.40625 20.3025 6.69922 20.1756 6.95312C20.0096 7.20703 19.7166 7.25586 19.4529 7.09961L17.7928 6.14258L14.8533 7.80273L17.7635 9.45312L19.4236 8.50586C19.6971 8.34961 19.9998 8.38867 20.1463 8.65234C20.283 8.89648 20.1854 9.18945 19.9315 9.33594L18.7498 10.0195L20.0779 10.7812C20.3709 10.9375 20.4979 11.25 20.3318 11.5332C20.1658 11.8164 19.8436 11.8555 19.5506 11.6895L18.242 10.918L18.2322 12.2754C18.2322 12.5488 18.0272 12.793 17.7537 12.793C17.451 12.7832 17.2557 12.5488 17.2557 12.2461V10.3418L14.365 8.64258L14.3943 12.0215L16.035 12.9785C16.3084 13.1445 16.4256 13.418 16.2693 13.6816C16.1229 13.9258 15.8299 13.9844 15.576 13.8379L14.4041 13.1641L14.4139 14.6582C14.4139 14.9902 14.2088 15.2539 13.8865 15.2539C13.5545 15.2539 13.3592 14.9902 13.3592 14.6582L13.369 13.1641L12.1971 13.8379C12.1766 13.8497 12.1558 13.8602 12.1348 13.8688C11.9508 13.6322 11.7406 13.4072 11.5113 13.1914C11.5633 13.1103 11.6408 13.0376 11.7381 12.9785L13.3787 12.0215L13.408 8.64258L11.5076 9.75598L11.5089 8.6L12.91 7.80273L11.5106 7.00978L11.5119 5.85315L13.408 6.96289L13.3787 3.56445L11.7283 2.60742C11.4549 2.44141 11.3475 2.16797 11.494 1.9043C11.6307 1.66016 11.9334 1.60156 12.1873 1.74805L13.369 2.43164L13.3592 0.947266C13.3592 0.615234 13.5545 0.351562 13.8865 0.351562C14.2088 0.351562 14.4139 0.615234 14.4139 0.947266Z" fill="white"/>
<path d="M7.30451 22.832C10.117 22.832 12.3924 20.5469 12.3924 17.7344C12.3924 16.25 11.7869 14.9512 10.615 13.8965C10.41 13.7109 10.3611 13.5938 10.3611 13.3008L10.3709 4.47266C10.3709 2.49023 9.12092 1.13281 7.30451 1.13281C5.46857 1.13281 4.20881 2.49023 4.20881 4.47266L4.21857 13.3008C4.21857 13.5938 4.17951 13.7109 3.96467 13.8965C2.80256 14.9512 2.18732 16.25 2.18732 17.7344C2.18732 20.5469 4.47248 22.832 7.30451 22.832ZM7.30451 21.416C5.26349 21.416 3.62287 19.7559 3.62287 17.7344C3.62287 16.5137 4.19904 15.4102 5.2342 14.7168C5.53693 14.5117 5.65412 14.3262 5.65412 13.9258V4.53125C5.65412 3.35938 6.32795 2.56836 7.30451 2.56836C8.26154 2.56836 8.93537 3.35938 8.93537 4.53125V13.9258C8.93537 14.3262 9.05256 14.5117 9.35529 14.7168C10.3904 15.4102 10.9666 16.5137 10.9666 17.7344C10.9666 19.7559 9.31623 21.416 7.30451 21.416Z" fill="white"/>
<path d="M7.29474 20.0977C8.60334 20.0977 9.65803 19.043 9.65803 17.7246C9.65803 16.8066 9.14045 16.0547 8.38849 15.6445C8.07599 15.4785 7.96857 15.3613 7.96857 14.8828V12.9297C7.96857 12.4609 7.66584 12.1582 7.29474 12.1582C6.91389 12.1582 6.62092 12.4609 6.62092 12.9297V14.8828C6.62092 15.3613 6.51349 15.4785 6.20099 15.6445C5.44904 16.0547 4.93146 16.8066 4.93146 17.7246C4.93146 19.043 5.98615 20.0977 7.29474 20.0977Z" fill="white"/>
</g>
<defs>
<clipPath id="clip0_8543_123">
<rect width="20.4098" height="23.9941" fill="white"/>
</clipPath>
</defs>
</svg>
