<svg xmlns="http://www.w3.org/2000/svg" xmlns:xlink="http://www.w3.org/1999/xlink" fill="none" version="1.1" width="19.513671875" height="19.5" viewBox="0 0 19.513671875 19.5"><g><path d="M19.1742,5.43886Q19.1536,5.39452,19.127,5.35191L18.5017,4.34781Q17.9417,3.44841,16.8745,3.1816Q15.8226,2.91861,14.8738,3.42167Q14.431,3.66296,13.9382,3.54454Q13.4602,3.42971,13.2187,3.04854Q13.082,2.83544,13.076,2.59666Q13.1021,1.51692,12.2959,0.749517Q11.5081,-0.000426412,10.3896,0L9.12084,0Q8.02525,-0.0000115037,7.24447,0.725953Q6.43859,1.47526,6.44415,2.54533Q6.43786,2.9402,6.11197,3.23743Q5.76138,3.55719,5.25825,3.55714Q4.95593,3.5542,4.69292,3.40976Q3.73446,2.90147,2.68253,3.16446Q1.62032,3.43002,1.06053,4.3223L0.389037,5.34371L0.379077,5.35928Q-0.196546,6.28371,0.101906,7.31935Q0.395292,8.33741,1.36424,8.85897Q1.93772,9.16535,1.93772,9.75Q1.93772,10.3347,1.36632,10.6399Q0.396815,11.1589,0.10285,12.1754Q-0.196231,13.2096,0.379338,14.1326L1.01935,15.1539Q1.55856,16.0546,2.62817,16.3359Q3.6817,16.6129,4.64017,16.1158Q5.08616,15.8751,5.57658,15.9965Q6.05162,16.1141,6.28758,16.4958Q6.43217,16.7214,6.43492,16.967Q6.43488,18.0284,7.24252,18.7758Q8.02517,19.5,9.12084,19.5L10.3899,19.5Q11.4818,19.5,12.2636,18.78Q13.0703,18.0371,13.0758,16.971Q13.0737,16.5499,13.3995,16.2484Q13.7506,15.9234,14.2584,15.9257Q14.5627,15.9334,14.8374,16.0787Q15.7816,16.5821,16.8331,16.3226Q17.8997,16.0594,18.463,15.1634L19.1243,14.1438Q19.712,13.2104,19.4125,12.1712Q19.1181,11.1497,18.1434,10.6308Q17.7293,10.4104,17.6108,9.99918Q17.4974,9.60578,17.7217,9.2496Q17.8741,9.00332,18.1422,8.86125Q19.1112,8.33684,19.4042,7.32369Q19.6912,6.3311,19.1742,5.43886ZM17.8187,6.08849L17.2284,5.14076Q16.9891,4.75643,16.5107,4.63681Q16.0169,4.51337,15.5765,4.7469Q14.642,5.25634,13.5878,5.00304Q12.5187,4.74617,11.9517,3.85146Q11.5835,3.27738,11.5759,2.60127C11.5758,2.59071,11.5759,2.58015,11.5762,2.56959Q11.5893,2.14779,11.2617,1.83598Q10.9086,1.4998,10.3901,1.5L9.12084,1.5Q8.61485,1.49999,8.26587,1.82447Q7.94199,2.12562,7.94413,2.53753Q7.92763,3.61164,7.12278,4.3457Q6.34263,5.05725,5.25811,5.05714Q4.56441,5.05051,3.97085,4.72453Q3.5401,4.49623,3.04634,4.61967Q2.56788,4.73929,2.3286,5.12357L2.31864,5.13914L1.64814,6.15904Q1.43076,6.51365,1.54325,6.90398Q1.6619,7.31569,2.07521,7.53817Q2.69917,7.87151,3.06465,8.45727Q3.43772,9.0552,3.43772,9.75Q3.43772,10.4448,3.06465,11.0427Q2.69917,11.6285,2.07313,11.9629Q1.66213,12.183,1.5438,12.5921Q1.43059,12.9836,1.65214,13.3389L2.29042,14.3575Q2.5313,14.7594,3.00969,14.8852Q3.50416,15.0152,3.94949,14.7842Q4.88379,14.2797,5.93713,14.5405Q7.00586,14.8051,7.56344,15.707Q7.92724,16.274,7.93483,16.9502Q7.93488,17.3728,8.26129,17.6748Q8.6127,18,9.12084,18L10.3899,18Q10.8963,18,11.2475,17.6766Q11.5737,17.3762,11.5758,16.9633Q11.5702,15.8974,12.3807,15.1474Q13.1659,14.4208,14.2651,14.4257Q14.9523,14.4426,15.5387,14.7527Q15.9802,14.9881,16.4737,14.8663Q16.9522,14.7482,17.1931,14.3651L17.8657,13.3277Q18.0845,12.9799,17.9712,12.5865Q17.8527,12.1754,17.4385,11.9549Q16.4638,11.436,16.1694,10.4145Q15.87,9.37534,16.4523,8.4504Q16.8126,7.86829,17.4398,7.53589Q17.8447,7.31667,17.9632,6.90697Q18.0766,6.51477,17.8566,6.15799C17.8427,6.13551,17.8301,6.11231,17.8187,6.08849ZM13.5068,9.75Q13.5068,11.3033,12.4085,12.4017Q11.3101,13.5,9.75684,13.5Q8.20354,13.5,7.10519,12.4017Q6.00684,11.3033,6.00684,9.75Q6.00684,8.1967,7.10519,7.09835Q8.20354,6,9.75684,6Q11.3101,6,12.4085,7.09835Q13.5068,8.1967,13.5068,9.75ZM12.0068,9.75Q12.0068,8.81802,11.3478,8.15901Q10.6888,7.5,9.75684,7.5Q8.82486,7.5,8.16585,8.15901Q7.50684,8.81802,7.50684,9.75Q7.50684,10.682,8.16585,11.341Q8.82486,12,9.75684,12Q10.6888,12,11.3478,11.341Q12.0068,10.682,12.0068,9.75Z" fill-rule="evenodd" fill="#FFFFFF" fill-opacity="1"/></g></svg>