<?xml version="1.0" encoding="UTF-8"?>
<svg width="20px" height="20px" viewBox="0 0 20 20" version="1.1" xmlns="http://www.w3.org/2000/svg" xmlns:xlink="http://www.w3.org/1999/xlink">
    <title>false,false</title>
    <g id="视觉稿" stroke="none" stroke-width="1" fill="none" fill-rule="evenodd">
        <g id="更多" transform="translate(-20.000000, -20.000000)" fill="#FFFFFF" fill-rule="nonzero">
            <g id="更多" transform="translate(20.000000, 20.000000)">
                <path d="M5.17850173,10.8928311 C5.67161314,10.8928311 6.07135892,10.4930853 6.07135892,9.99997389 C6.07135892,9.50686248 5.67161314,9.1071167 5.17850173,9.1071167 C4.68539031,9.1071167 4.28564453,9.50686248 4.28564453,9.99997389 C4.28564453,10.4930853 4.68539031,10.8928311 5.17850173,10.8928311 Z M9.99979079,10.8928311 C10.4929022,10.8928311 10.892648,10.4930853 10.892648,9.99997389 C10.892648,9.50686248 10.4929022,9.1071167 9.99979079,9.1071167 C9.50667938,9.1071167 9.10693359,9.50686248 9.10693359,9.99997389 C9.10693359,10.4930853 9.50667938,10.8928311 9.99979079,10.8928311 Z M14.8215681,10.8928311 C15.3146795,10.8928311 15.7144253,10.4930853 15.7144253,9.99997389 C15.7144253,9.50686248 15.3146795,9.1071167 14.8215681,9.1071167 C14.3284567,9.1071167 13.9287109,9.50686248 13.9287109,9.99997389 C13.9287109,10.4930853 14.3284567,10.8928311 14.8215681,10.8928311 Z" id="shape"></path>
            </g>
        </g>
    </g>
</svg>