<svg xmlns="http://www.w3.org/2000/svg" xmlns:xlink="http://www.w3.org/1999/xlink" fill="none" version="1.1" width="16" height="16" viewBox="0 0 16 16"><defs><clipPath id="master_svg0_426_07421"><rect x="0" y="0" width="16" height="16" rx="0"/></clipPath></defs><g clip-path="url(#master_svg0_426_07421)"><g><path d="M6.926464375,2.1548441125C7.733184375,2.0933774125,8.553164375,2.1970397125,9.316294375,2.4675823125C10.423674375,2.8558483125,11.405364375,3.5887653125,12.096884375,4.5362753125C12.488284375,5.0697653124999995,12.787584375,5.6705753125000005,12.979384375,6.3037853125C13.312884375,7.4124853125,13.312584375,8.6188453125,12.980784375,9.7278253125C12.940584375,9.8495053125,12.908684375,9.9746653125,12.854284375,10.0911953125C12.862784375,9.956175312500001,12.864784375,9.8179553125,12.824084375,9.6873753125C12.767984375,9.507375312499999,12.664484375,9.3395553125,12.517184375,9.2199953125C12.317984375,9.0534253125,12.051184375,8.9723553125,11.792984375,8.9965353125C11.530184375,9.0186653125,11.275584375,9.1496853125,11.113184375,9.358575312500001C11.091404375,9.3854253125,11.069714375,9.4122653125,11.048744375,9.4398253125C11.300564375,8.7697553125,11.370164375,8.0322553125,11.247144375,7.3269953125C11.149364375,6.7506753125,10.916114375,6.1993353125,10.578874375,5.722405312499999C10.260114375,5.276475312500001,9.850254375,4.8951553125,9.378514375,4.6156053125C8.811544375,4.2764853125,8.156524375,4.0862253125,7.496144375,4.0678953125C6.748054375,4.0434053125,5.993954375,4.2385553125,5.353804375,4.6269853125000004C4.591804375000001,5.0839953125,3.993054375,5.8066353125,3.687904375,6.6411653125C3.3535343749999997,7.5407953125,3.365064375,8.562595312500001,3.719044375,9.454665312500001C3.600674375,9.2669353125,3.424164375,9.1155553125,3.213994375,9.0402653125C2.914694375,8.9287053125,2.560404375,8.9709353125,2.300295375,9.1582253125C2.142268375,9.2653353125,2.019166375,9.4214253125,1.951530375,9.599995312499999C1.893219375,9.7442653125,1.883583375,9.903115312499999,1.8965343749999999,10.0568853125C1.675939375,9.459735312500001,1.544463675,8.827755312499999,1.524392555,8.1907553125C1.497370375,7.3322153125,1.658872375,6.4675053125,2.000206375,5.6787953125C2.388623375,4.7767953125,3.007614375,3.9746553125,3.783514375,3.3722653124999997C4.680304375,2.6681153125,5.789154375,2.2376529125,6.926464375,2.1548441125Z" fill="#19B957" fill-opacity="1"/></g><g><path d="M2.30092084375,9.15799190625C2.56102784375,8.97079213625,2.91531984375,8.92856940625,3.21461984375,9.04012550625C3.42478984375,9.11532490625,3.6012998437499997,9.26679190625,3.7196598437499997,9.45452590625C3.81320984375,9.65248090625,3.90122984375,9.85381390625,4.01832984375,10.03950390625C4.323319843749999,10.54892390625,4.74586984375,10.98670390625,5.24222984375,11.31203390625C5.748069843750001,11.64421390625,6.33228984375,11.85630390625,6.93372984375,11.92412390625C7.56945984375,11.99772390625,8.22383984375,11.915593906249999,8.81879984375,11.67852390625C9.33919984375,11.47479390625,9.81608984375,11.15834390625,10.20257984375,10.75443390625C10.57031984375,10.37959390625,10.85573984375,9.92714790625,11.04933984375,9.43959190625C11.07031984375,9.412125906250001,11.09200984375,9.38528090625,11.11377984375,9.35843690625C11.27626984375,9.14945890625,11.53084984375,9.01852500625,11.79360984375,8.99639210625C12.05178984375,8.97221459625,12.31858984375,9.05328110625,12.51788984375,9.21985890625C12.66518984375,9.33941390625,12.76858984375,9.50723590625,12.82468984375,9.68723590625C12.86528984375,9.81781390625,12.86348984375,9.95603590625,12.85488984375,10.09097390625C12.84458984375,10.14714390625,12.81798984375,10.19817390625,12.79668984375,10.25079390625C12.51058984375,10.94385390625,12.08938984375,11.58074390625,11.56559984375,12.11719390625C11.01546984375,12.67897390625,10.35386984375,13.13239390625,9.626579843750001,13.432303906249999C8.63722984375,13.84679390625,7.53184984375,13.97505390625,6.47276984375,13.80794390625C5.79515984375,13.70314390625,5.13697984375,13.474433906249999,4.53886984375,13.139323906249999C3.4519698437499997,12.53372390625,2.56608484375,11.57363390625,2.05502684375,10.43870390625C2.00051184375,10.312123906250001,1.94315164375,10.18661390625,1.89716063375,10.05674390625C1.88420952375,9.90296990625,1.89384502375,9.74412490625,1.95215604375,9.59985890625C2.01979184375,9.42128090625,2.14289384375,9.26519190625,2.30092084375,9.15799190625ZM13.60268984375,11.534253906250001C13.80968984375,11.50928390625,14.02428984375,11.55159390625,14.20318984375,11.65968390625C14.52888984375,11.84714390625,14.71768984375,12.23950390625,14.66158984375,12.61105390625C14.61648984375,12.95443390625,14.36798984375,13.26243390625,14.04048984375,13.376213906250001C13.71538984375,13.49550390625,13.32848984375,13.41914390625,13.07518984375,13.18243390625C12.88208984375,13.006433906249999,12.76818984375,12.74901390625,12.76528984375,12.487943906249999C12.76478984375,12.30839390625,12.81268984375,12.12812390625,12.90988984375,11.97657390625C13.05858984375,11.735413906249999,13.32058984375,11.56599390625,13.60268984375,11.534253906250001Z" fill="#F7B516" fill-opacity="1"/></g></g></svg>