<svg xmlns="http://www.w3.org/2000/svg" xmlns:xlink="http://www.w3.org/1999/xlink" fill="none" version="1.1" width="12" height="12" viewBox="0 0 12 12"><g><g><path d="M1.530484,2.969824L6,7.43934L10.46921,2.970132L10.46967,2.96967Q10.57516,2.864181,10.71299,2.80709Q10.85081,2.75,11,2.75Q11.0739,2.75,11.1463,2.764411Q11.2188,2.778822,11.287,2.80709Q11.3553,2.835359,11.4167,2.876398Q11.4781,2.917437,11.5303,2.96967Q11.5826,3.021903,11.6236,3.083322Q11.6646,3.144742,11.6929,3.212987Q11.7212,3.281233,11.7356,3.353682Q11.75,3.4261315,11.75,3.5Q11.75,3.649184,11.6929,3.787013Q11.6358,3.924841,11.5303,4.03033L11.5299,4.030792L6.53033,9.03033Q6.4781,9.08256,6.41668,9.1236Q6.35526,9.16464,6.28701,9.192910000000001Q6.21877,9.22118,6.14632,9.23559Q6.07387,9.25,6,9.25Q5.92613,9.25,5.85368,9.23559Q5.78123,9.22118,5.71299,9.192910000000001Q5.64474,9.16464,5.58332,9.1236Q5.5219,9.08256,5.46967,9.03033L0.469824,4.0304839999999995L0.46967000000000003,4.03033Q0.364181,3.924841,0.30709,3.787013Q0.25,3.649184,0.25,3.5Q0.25,3.4261315,0.26441099999999995,3.353682Q0.278822,3.281233,0.30709,3.212987Q0.33535899999999996,3.144742,0.376398,3.083322Q0.41743699999999995,3.021903,0.46967000000000003,2.96967Q0.521903,2.917437,0.583322,2.876398Q0.6447419999999999,2.835359,0.712987,2.80709Q0.7812330000000001,2.778822,0.853682,2.764411Q0.9261315,2.75,1,2.75Q1.149184,2.75,1.287013,2.80709Q1.424841,2.864181,1.53033,2.96967L1.530484,2.969824Z" fill-rule="evenodd" fill="#FFFFFF" fill-opacity="1"/></g></g></svg>