<svg width="23" height="24" viewBox="0 0 23 24" fill="none" xmlns="http://www.w3.org/2000/svg">
<g clip-path="url(#clip0_8543_208)">
<path d="M16.7188 18.6914L17.373 17.5391C17.5488 17.2461 17.4609 16.8945 17.168 16.7188C16.875 16.5527 16.5332 16.6602 16.3574 16.9434L15.6934 18.125C15.5371 18.3984 15.6055 18.7402 15.9082 18.916C16.2012 19.082 16.5527 18.9746 16.7188 18.6914ZM14.9902 21.6016C15.5664 21.6016 16.0449 21.1133 16.0449 20.5273C16.0449 19.9609 15.5664 19.4727 14.9902 19.4727C14.4043 19.4727 13.9258 19.9609 13.9258 20.5273C13.9258 21.1133 14.4043 21.6016 14.9902 21.6016Z" fill="white"/>
<path d="M10.7422 20.1465L12.2656 17.5098C12.4316 17.207 12.3438 16.8652 12.0605 16.6992C11.7578 16.5234 11.416 16.6211 11.25 16.9238L9.7168 19.5801C9.55078 19.8633 9.63867 20.2051 9.94141 20.3711C10.2246 20.5371 10.5859 20.4395 10.7422 20.1465ZM9.01367 23.0566C9.58984 23.0566 10.0781 22.5684 10.0781 21.9824C10.0781 21.416 9.59961 20.9375 9.01367 20.9375C8.4375 20.9375 7.95898 21.416 7.95898 21.9824C7.95898 22.5684 8.4375 23.0566 9.01367 23.0566Z" fill="white"/>
<path d="M6.48438 18.6522L7.13867 17.4999C7.31445 17.2069 7.22656 16.8554 6.93359 16.6796C6.64062 16.5136 6.29883 16.621 6.12305 16.9042L5.45898 18.0858C5.30273 18.3593 5.37109 18.7011 5.67383 18.8769C5.9668 19.0429 6.31836 18.9452 6.48438 18.6522ZM4.75586 21.5624C5.33203 21.5624 5.81055 21.0741 5.81055 20.4882C5.81055 19.9218 5.33203 19.4433 4.75586 19.4433C4.16992 19.4433 3.69141 19.9218 3.69141 20.4882C3.69141 21.0741 4.16992 21.5624 4.75586 21.5624Z" fill="white"/>
<path d="M5.22461 15.1367H17.3438C20.5469 15.1367 22.9297 12.7051 22.9297 9.69727C22.9297 6.58203 20.3906 4.30664 17.0801 4.30664C15.8594 1.89453 13.5938 0.341797 10.7715 0.341797C7.09961 0.341797 4.07227 3.22266 3.75 6.8457C1.98242 7.36328 0.634766 8.89648 0.634766 10.957C0.634766 13.2715 2.31445 15.1367 5.22461 15.1367ZM5.20508 13.5742C3.20312 13.5742 2.19727 12.4512 2.19727 11.0059C2.19727 9.83398 2.88086 8.7793 4.54102 8.33984C5.07812 8.19336 5.27344 7.93945 5.32227 7.39258C5.54688 4.19922 7.93945 1.9043 10.7715 1.9043C12.9688 1.9043 14.6973 3.11523 15.752 5.27344C15.9766 5.75195 16.2695 5.91797 16.8457 5.91797C19.7363 5.91797 21.3672 7.65625 21.3672 9.73633C21.3672 11.8652 19.668 13.5742 17.4414 13.5742H5.20508Z" fill="white"/>
</g>
<defs>
<clipPath id="clip0_8543_208">
<rect width="22.9297" height="23.0566" fill="white"/>
</clipPath>
</defs>
</svg>
