<svg width="240px" height="72px" viewBox="0 0 240 72" version="1.1" xmlns="http://www.w3.org/2000/svg" xmlns:xlink="http://www.w3.org/1999/xlink">
    <title>首页doodle</title>
    <g id="首页" stroke="none" stroke-width="1" fill="none" fill-rule="evenodd">
        <g id="B1.-二级分类" transform="translate(-200, -56)">
            <g id="搜索bar" transform="translate(200, 56)">
                <g id="首页doodle" transform="translate(0, -6)">
                    <rect id="矩形" x="0" y="6" width="240" height="72"></rect>
                    <g id="淘宝logo" transform="translate(69, 14)" fill="#FF5000">
                        <path d="M82.9911589,33.2876233 C83.0321422,30.7684279 83.0611304,27.8946666 83.0664616,25.027887 C87.5786217,24.9131892 91.6401322,24.7803725 94.240072,24.6447299 C96.1731171,24.5978535 97.2250215,23.6337272 97.2478455,20.9403241 C93.1566804,21.0932544 88.1695474,21.262309 83.059631,21.4065955 C83.0491353,19.6633554 83.0276441,17.983116 82.9921585,16.4523162 C86.6631616,16.3567348 89.9826414,16.2511795 92.4456371,16.1559305 C94.3785156,16.1157032 95.4873967,15.1583923 95.5430407,12.4649892 C85.9784408,12.746913 74.7456878,13.0597553 65.2573902,13.1378828 L65.2573902,16.7493669 C68.700153,16.7339076 72.5475842,16.6795508 76.3397045,16.6047479 C76.3723579,18.1225819 76.3961815,19.8124625 76.410509,21.5766474 C71.7818964,21.6815377 67.3298784,21.7511875 63.6423821,21.7540134 L63.6423821,25.3656637 C67.2475787,25.3365737 71.8225465,25.2690848 76.4260027,25.1774928 C76.4276687,28.01485 76.4050112,30.8738168 76.3550316,33.3847009 C69.8355234,33.4614985 63.4497939,33.4797837 57.7802724,33.4162843 L57.7802724,37.2518446 C71.168813,37.3268137 86.4042672,37.0621777 99.0141253,36.6805167 C101.268873,36.6484345 102.499204,35.668849 102.783755,32.7849478 C96.7100648,32.9912376 89.8855143,33.1676062 82.9911589,33.2876233 L82.9911589,33.2876233 Z M89.5836374,28.751243 C89.5836374,30.4821821 90.9898973,31.9024398 92.7245233,31.9235509 C94.4591493,31.9446619 95.8654093,30.5588135 95.8654093,28.8280406 C95.8654093,27.0972677 94.4591493,25.67701 92.7245233,25.6557327 C90.9898973,25.6346217 89.5836374,27.0204701 89.5836374,28.751243 L89.5836374,28.751243 Z M72.6918587,8.94409974 C80.4232061,6.53777353 90.3714828,6.33148376 94.7565281,7.58717512 C98.4077059,8.63275344 98.7828863,10.718757 97.454428,14.0034355 L100.49952,14.4858311 C103.781181,9.9122155 102.19033,5.82299026 97.3503038,3.98084415 C93.8880489,2.6631495 88.2511807,2.43142673 83.2825401,2.92978028 L83.5137792,0 L76.0511555,0.179028276 L76.3150479,4.19162211 C71.7309172,5.37350794 67.5871069,7.11292473 63.9707482,9.07392433 C64.8782115,7.99659633 65.7203681,6.69219997 66.9628614,4.20691514 L60.5299845,2.88772443 C59.659173,7.23177822 58.4881505,11.2279154 56.4454834,14.6299513 L57.9678626,15.7834121 C63.0521228,12.6079458 67.3590332,10.603893 72.6918587,8.94409974 L72.6918587,8.94409974 Z M6.98181971,9.86517279 C9.10861914,9.86517279 10.8327494,8.1448723 10.8327494,6.02279712 C10.8327494,3.90072194 9.10861914,2.18042144 6.98181971,2.18042144 C4.85502028,2.18042144 3.13088999,3.90072194 3.13088999,6.02279712 C3.13088999,8.1448723 4.85502028,9.86517279 6.98181971,9.86517279 L6.98181971,9.86517279 Z M34.4076364,2.13986165 C30.1485398,1.99640631 24.5631506,3.28135392 20.7435415,5.35904604 C21.7148121,4.19710765 22.6507638,2.16745561 23.0007877,1.01765191 L16.5259279,0.0403935664 C15.8750267,3.81262074 13.6252774,8.88608593 11.4445,11.313357 L13.2057818,12.8783999 C19.416416,8.23230858 26.5749969,6.10391671 33.9811436,6.25967297 C39.457244,6.37470321 42.4296986,8.9218251 43.1467395,13.3932101 C43.7923096,17.4189359 43.8291279,22.7578683 42.9521522,27.2684832 C41.4897485,34.7908292 38.6442422,36.751995 31.3202286,35.2650796 L30.8715783,37.7925865 C32.9727215,38.3348244 34.6040563,38.6621286 36.7650084,38.7587075 C46.5033708,39.1947253 49.7765361,32.5643624 49.9423018,20.4891795 C49.9284741,5.5350822 43.5978889,2.44971189 34.4076364,2.13986165 L34.4076364,2.13986165 Z M5.07876238,12.9407356 L2.55962294,16.6946776 C5.40446291,17.9244373 7.54808881,19.1603475 8.43506046,19.7647549 C9.48729806,20.4818654 9.69071511,21.2568234 9.15393399,22.4611501 C8.65147222,23.5890117 5.34032239,28.5344808 0,34.6430519 L6.84004419,37.8956482 C9.67355544,31.1622236 11.961789,25.5368792 12.6978222,22.6903795 C13.1021574,21.1269989 13.1927871,19.5578002 12.5282247,18.5265176 C11.4223423,16.8102066 9.652564,15.3620224 5.07876238,12.9407356 L5.07876238,12.9407356 Z M36.0522991,32.7837842 C38.6157538,32.5864708 39.8557481,31.1788464 39.7351307,29.4253002 L39.4189263,24.8312385 C36.7022007,26.3434207 33.7948862,27.5947901 31.0363444,28.5240084 C31.0754951,26.4232105 31.1026507,24.33222 31.1196438,22.2472139 C33.374391,22.1792263 35.6108124,22.1054208 37.801086,22.0289556 C39.792274,21.9593058 40.683244,21.1348116 40.7532155,18.6558435 C37.5638494,18.7760268 34.3426629,18.8950465 31.1373032,18.9997706 C31.141135,17.7610345 31.141968,16.5236283 31.139469,15.2867208 C33.2316159,15.2217254 35.1395046,15.1502471 36.5522619,15.0800986 C38.5422837,14.9813588 39.3446232,14.2954993 39.5043914,11.7071527 C34.6022237,11.9059622 28.7531088,12.0947979 23.6826763,12.1594609 C24.1463206,11.5901277 24.5884736,10.9740842 25.0051371,10.3028529 L20.4583244,9.58524371 C19.1721822,11.6378353 17.2423025,13.7904966 15.1833087,15.6308142 L16.9034407,17.4570023 C17.9826673,16.88102 19.0449008,16.2531743 20.0646516,15.5240954 C21.6106879,15.5097997 23.4304458,15.4795461 25.3203419,15.4389863 C25.3295048,16.6434792 25.3353358,17.8946824 25.3373349,19.1708199 C22.2037794,19.2521057 19.1140393,19.3111169 16.1154287,19.3345551 L15.9038483,22.5918059 C18.9890902,22.5507474 22.1574649,22.4867494 25.3343362,22.4074583 C25.3251732,24.9838364 25.2996836,27.5841515 25.254702,30.0380191 C25.0319595,30.0772491 24.8120491,30.1138194 24.5968036,30.146234 C21.9272255,30.5486736 20.6542445,30.0596288 20.5964348,28.4455484 C20.5717782,27.7560319 20.7143867,26.8701994 20.9847764,25.6740179 L15.9644902,25.0697766 C15.4673596,26.6871816 15.2897653,28.5326523 15.3720651,29.869297 C15.6209636,33.9149703 19.5618567,35.4411157 26.5161876,33.6827489 C28.90538,33.0786739 33.2649357,31.2561428 35.828557,29.8628141 L36.0522991,32.7837842 Z M57.6950239,54.6089767 L57.6848614,54.6089767 C56.2022992,54.6089767 55.3746367,53.2836356 55.3746367,51.2719362 C55.3746367,49.2600706 56.2022992,48.0033819 57.6848614,48.0033819 L57.6950239,48.0033819 C59.1777526,48.0033819 60.0054151,49.2600706 60.0054151,51.2719362 C60.0054151,53.2836356 59.1777526,54.6089767 57.6950239,54.6089767 M57.6931913,46.5758101 C54.6739224,46.5758101 52.939463,48.5702217 52.939463,51.2719362 C52.939463,53.9734845 54.6739224,55.9738803 57.6931913,55.9738803 C60.7124601,55.9738803 62.4470861,53.9734845 62.4470861,51.2719362 C62.4470861,48.5702217 60.7124601,46.5758101 57.6931913,46.5758101 M25.3600423,54.6089767 L25.3498798,54.6089767 C23.8671511,54.6089767 23.0396552,53.2836356 23.0396552,51.2719362 C23.0396552,49.2600706 23.8671511,48.0033819 25.3498798,48.0033819 L25.3600423,48.0033819 C26.8427711,48.0033819 27.6704336,49.2600706 27.6704336,51.2719362 C27.6704336,53.2836356 26.8427711,54.6089767 25.3600423,54.6089767 M25.3582098,46.5758101 C22.3389409,46.5758101 20.6043149,48.5702217 20.6043149,51.2719362 C20.6043149,53.9734845 22.3389409,55.9738803 25.3582098,55.9738803 C28.3774786,55.9738803 30.1121046,53.9734845 30.1121046,51.2719362 C30.1121046,48.5702217 28.3774786,46.5758101 25.3582098,46.5758101 M36.4606825,54.5449787 L36.4506866,54.5449787 C34.8385107,54.5449787 34.2740742,53.280311 34.1609536,51.9232201 C34.141295,51.7279015 34.1314656,51.5249363 34.1314656,51.3133272 C34.1314656,51.2528199 34.1322986,51.1923127 34.1341312,51.1328028 L34.1341312,51.1266524 C34.1511243,49.9941364 34.4400065,49.1744629 34.9927811,48.7002125 C35.3659623,48.3424884 35.8567621,48.1481671 36.4506866,48.1481671 L36.4606825,48.1481671 C37.9490756,48.1481671 38.8035605,49.3652934 38.8035605,51.3133272 C38.8035605,53.2620258 37.9490756,54.5449787 36.4606825,54.5449787 M36.90017,46.5761426 C35.6796677,46.5500447 34.8070235,46.9592996 34.2142652,47.4483444 L34.2027699,43.7369569 L32.0038332,43.7369569 L32.0038332,55.8901011 C32.7033813,55.8275991 33.4437461,55.4512574 33.9338796,54.9587219 C34.7635412,55.7522975 35.6158604,55.9735479 36.6635998,55.9735479 C38.9450028,55.9735479 41.0559754,54.1797743 41.0559754,51.3708423 C41.0559754,48.3547893 39.1939014,46.6250138 36.90017,46.5761426 M46.8374512,54.5925201 C45.6544336,54.5925201 44.8584249,53.6596448 44.868754,52.50901 C44.8790831,51.3582089 45.6917517,50.4253336 46.8749359,50.4253336 C48.0579536,50.4253336 48.8539623,51.3582089 48.8436332,52.50901 C48.8333041,53.6596448 48.0206354,54.5925201 46.8374512,54.5925201 M50.9331145,53.403154 C50.9331145,53.403154 50.9539393,51.493519 50.9642685,50.3605044 C50.9899247,48.3346756 50.0063257,47.3778634 49.0195614,46.9430092 C48.3843205,46.6630802 47.5260038,46.5758101 46.470934,46.5758101 C45.1676321,46.5758101 43.7542085,46.894138 43.7542085,46.894138 L43.5374635,48.3371691 C45.1098224,47.852945 46.9878899,47.7822978 47.7922286,48.1132591 C48.4734508,48.3936868 48.8437998,48.8572986 48.7873228,49.9781785 C48.3285099,49.4745056 47.3370808,49.0730634 46.0955871,49.1653203 C44.2341794,49.2602369 42.6536572,50.471379 42.636331,52.4496663 C42.6163391,54.7220122 44.2433424,55.9738803 46.0327794,55.9738803 C47.1404943,55.9738803 48.0414603,55.6115018 48.7211831,55.0348546 C48.8911138,55.3355623 49.39924,55.8897686 50.2002467,55.8897686 C51.1948411,55.8897686 51.7867664,55.1355892 51.9726906,54.8244091 C51.2589816,54.8907343 50.9227854,54.5783907 50.9331145,53.403154 M14.4779797,54.5925201 C13.2947955,54.5925201 12.4989533,53.6596448 12.5092825,52.50901 C12.5196116,51.3582089 13.3322802,50.4253336 14.5152978,50.4253336 C15.698482,50.4253336 16.4944908,51.3582089 16.4841616,52.50901 C16.4738325,53.6596448 15.6609973,54.5925201 14.4779797,54.5925201 M18.5734763,53.403154 C18.5734763,53.403154 18.5944678,51.493519 18.6046303,50.3605044 C18.6304531,48.3346756 17.6466876,47.3778634 16.6599233,46.9430092 C16.0246823,46.6630802 15.1665323,46.5758101 14.1112959,46.5758101 C12.8081606,46.5758101 11.3947369,46.894138 11.3947369,46.894138 L11.1778254,48.3371691 C12.7501842,47.852945 14.6282517,47.7822978 15.4325904,48.1132591 C16.1139793,48.3936868 16.4841616,48.8572986 16.4278513,49.9781785 C15.9688718,49.4745056 14.9776093,49.0730634 13.7359489,49.1653203 C11.8745413,49.2602369 10.2940191,50.471379 10.2766928,52.4496663 C10.2568676,54.7220122 11.8838708,55.9738803 13.6731412,55.9738803 C14.7810228,55.9738803 15.6818221,55.6115018 16.361545,55.0348546 C16.5314757,55.3355623 17.0397684,55.8897686 17.8406085,55.8897686 C18.835203,55.8897686 19.4271283,55.1355892 19.613219,54.8244091 C18.8993435,54.8907343 18.5631472,54.5783907 18.5734763,53.403154 M11.1604991,44.1984077 L11.1661635,44.1302539 L0.362069027,44.1217763 L0.362069027,45.902584 L4.43474166,45.902584 L4.43657424,55.8897686 L6.83909458,55.8897686 L6.83709539,45.902584 C7.61960964,45.9070722 9.45802666,45.9024178 9.60729913,45.902584 C10.5824015,45.9032489 11.0563749,45.3525333 11.1604991,44.1984077 M81.8300491,54.6089767 L81.8198866,54.6089767 C80.3373244,54.6089767 79.5096619,53.2836356 79.5096619,51.2719362 C79.5096619,49.2600706 80.3373244,48.0033819 81.8198866,48.0033819 L81.8300491,48.0033819 C83.3127778,48.0033819 84.1404403,49.2600706 84.1404403,51.2719362 C84.1404403,53.2836356 83.3127778,54.6089767 81.8300491,54.6089767 M81.8282165,46.5758101 C78.8089476,46.5758101 77.0744882,48.5702217 77.0744882,51.2719362 C77.0744882,53.9734845 78.8089476,55.9738803 81.8282165,55.9738803 C84.8474853,55.9738803 86.5821113,53.9734845 86.5821113,51.2719362 C86.5821113,48.5702217 84.8474853,46.5758101 81.8282165,46.5758101 M72.415638,48.0034318 L72.4258005,48.0034318 C73.3704153,48.0034318 74.0493051,48.5135876 74.4174883,49.4042408 L75.9523625,48.6558793 C75.3074588,47.2632155 74.2407271,46.5756937 72.4239679,46.5756937 C69.4046991,46.5756937 67.670073,48.5732637 67.670073,51.274812 C67.670073,53.9763603 69.4046991,55.973764 72.4239679,55.973764 C74.2407271,55.973764 75.3074588,55.2864084 75.9523625,53.8937446 L74.4174883,53.1453832 C74.0493051,54.0360364 73.3704153,54.5461922 72.4258005,54.5461922 L72.415638,54.5461922 C70.9329092,54.5461922 70.1052467,53.2866776 70.1052467,51.274812 C70.1052467,49.2629464 70.9329092,48.0034318 72.415638,48.0034318 M64.8418596,53.2338501 C64.0763385,53.2245413 63.4557582,53.8360965 63.4557582,54.5999173 C63.4557582,55.363738 64.0763385,55.9905863 64.8418596,55.9998951 C65.6073808,56.0092039 66.2279611,55.3976487 66.2279611,54.6338279 C66.2279611,53.8700072 65.6073808,53.2431589 64.8418596,53.2338501 M101.960424,53.400727 C101.960424,53.400727 101.991578,51.6121066 101.991578,50.479092 C101.991578,48.5767711 101.678039,47.7742191 101.12893,47.3114385 C100.862871,47.0619292 100.53184,46.8775816 100.136668,46.765876 C99.838789,46.681598 99.5259166,46.6320619 99.2167094,46.60746 C98.2111194,46.5270054 97.2703364,46.7053687 96.471662,47.3711145 C96.323889,47.49429 96.2185986,47.6000114 96.0333408,47.7949977 C95.9998544,47.8304044 95.9587045,47.8776133 95.9140561,47.9311389 C95.7849421,47.6655055 95.6255071,47.468857 95.4389165,47.3114385 C95.1728583,47.0619292 94.8418266,46.8775816 94.446821,46.765876 C94.1487759,46.681598 93.8359035,46.6320619 93.5266962,46.60746 C92.5211063,46.5270054 91.5803232,46.7053687 90.7816489,47.3711145 C90.6542009,47.4773347 90.55824,47.5707552 90.4154649,47.7195298 C90.3923077,47.6812972 90.3678177,47.6437296 90.3398291,47.6078242 C89.8813494,47.0207045 89.1388188,46.7522452 88.4391041,46.6897432 L88.4391041,55.910115 L90.6380408,55.910115 L90.6380408,49.6459539 C90.6380408,49.0423776 90.959743,48.4690549 91.500689,48.1990995 C91.7752438,48.0621271 92.0722893,48.0051107 92.3601719,48.0062743 C92.6695458,48.0076041 93.0823774,48.0742618 93.371093,48.2758972 C93.7554363,48.5441903 94.0741397,48.867505 94.1231197,49.6570912 L94.1231197,55.906458 L96.3220564,55.906458 L96.3220564,49.6484473 C96.3220564,49.048528 96.6405932,48.4798598 97.1758749,48.2064136 C97.4545946,48.0641219 97.7571379,48.0049445 98.050185,48.0062743 C98.3595589,48.0076041 98.7723905,48.0742618 99.0611062,48.2758972 C99.5100897,48.5895707 99.8711092,48.9758861 99.8147988,50.096766 L99.789809,53.9949945 L99.789809,54.7370393 C99.789809,55.3374573 100.23796,55.5838081 100.536505,55.731253 C100.577155,55.7513666 100.619637,55.7676571 100.662453,55.7827839 C100.81839,55.8376393 101.07945,55.8886715 101.244716,55.8871755 C102.228981,55.8785316 102.815075,55.1313337 103,54.8219822 C102.286291,54.8883074 101.950095,54.5759637 101.960424,53.400727" id="形状结合"></path>
                    </g>
                </g>
            </g>
        </g>
    </g>
</svg>