<svg xmlns="http://www.w3.org/2000/svg" xmlns:xlink="http://www.w3.org/1999/xlink" fill="none" version="1.1" width="28" height="28" viewBox="0 0 28 28"><g><g><path d="M20.25,12.5Q20.25,13.97826,19.7059,15.3527Q19.2544,16.493000000000002,18.485300000000002,17.4247L22.5303,21.4697C22.671,21.6103,22.75,21.8011,22.75,22C22.75,22.1989,22.671,22.3897,22.5303,22.5303C22.3897,22.671,22.1989,22.75,22,22.75C21.8011,22.75,21.6103,22.671,21.4697,22.5303L17.4247,18.485300000000002Q16.493000000000002,19.2544,15.3527,19.7059Q13.97826,20.25,12.5,20.25Q11.021740000000001,20.25,9.647269999999999,19.7059Q8.15489,19.115000000000002,7.01992,17.9801Q5.8849599999999995,16.845100000000002,5.294141,15.3527Q4.75,13.97826,4.75,12.5Q4.75,11.021740000000001,5.294141,9.647269999999999Q5.8849599999999995,8.15488,7.01992,7.01992Q8.15488,5.8849599999999995,9.647269999999999,5.294141Q11.021740000000001,4.75,12.5,4.75Q13.97826,4.75,15.3527,5.294141Q16.845100000000002,5.8849599999999995,17.9801,7.01992Q19.115000000000002,8.15489,19.7059,9.647269999999999Q20.25,11.021740000000001,20.25,12.5ZM18.75,12.5Q18.75,9.91117,16.9194,8.08058Q15.0888,6.25,12.5,6.25Q9.91117,6.25,8.08058,8.08058Q6.25,9.91117,6.25,12.5Q6.25,15.0888,8.08058,16.9194Q9.91117,18.75,12.5,18.75Q15.0888,18.75,16.9194,16.9194Q18.75,15.0888,18.75,12.5Z" fill-rule="evenodd" fill="#CCCCCC" fill-opacity="1"/></g></g></svg>