<?xml version="1.0" encoding="UTF-8"?>
<svg width="48px" height="48px" viewBox="0 0 48 48" version="1.1" xmlns="http://www.w3.org/2000/svg" xmlns:xlink="http://www.w3.org/1999/xlink">
    <title>网址缩略图</title>
    <g id="视觉稿" stroke="none" stroke-width="1" fill="none" fill-rule="evenodd">
        <g id="单个快捷方式" transform="translate(-441.000000, -36.000000)" fill-rule="nonzero">
            <g id="false" transform="translate(410.000000, 20.000000)">
                <g id="容器-278" transform="translate(4.000000, 4.000000)">
                    <g id="网址缩略图" transform="translate(27.000000, 12.000000)">
                        <rect fill="#FFFFFF" x="0" y="0" width="48" height="48"></rect>
                        <g id="基础_添加" transform="translate(10.000000, 10.000000)" fill="#1A1A1A">
                            <path d="M14,4.25 C14.4142137,4.25 14.75,4.5857864 14.75,5 L14.75,13.25 L23,13.25 C23.3796954,13.25 23.6934909,13.5321539 23.7431534,13.8982294 L23.75,14 C23.75,14.4142137 23.4142132,14.75 23,14.75 L14.75,14.75 L14.75,23 C14.75,23.3796954 14.4678462,23.6934909 14.1017706,23.7431534 L14,23.75 C13.5857864,23.75 13.25,23.4142132 13.25,23 L13.25,14.75 L5,14.75 C4.6203042,14.75 4.30650903,14.4678462 4.25684662,14.1017706 L4.25,14 C4.25,13.5857864 4.5857864,13.25 5,13.25 L13.25,13.25 L13.25,5 C13.25,4.6203042 13.5321539,4.30650903 13.8982294,4.25684662 Z" id="shape"></path>
                        </g>
                    </g>
                </g>
            </g>
        </g>
    </g>
</svg>