<?xml version="1.0" encoding="UTF-8"?>
<svg width="20px" height="20px" viewBox="0 0 20 20" version="1.1" xmlns="http://www.w3.org/2000/svg" xmlns:xlink="http://www.w3.org/1999/xlink">
    <title>容器 687</title>
    <g id="视觉稿" stroke="none" stroke-width="1" fill="none" fill-rule="evenodd">
        <g id="首页" transform="translate(-1190.000000, -42.000000)" fill="#1F1F1F">
            <g id="功能列表" transform="translate(24.000000, 24.000000)">
                <g id="容器-688" transform="translate(1152.000000, 4.000000)">
                    <g id="组-340" transform="translate(14.250000, 14.250000)">
                        <path d="M18.8154354,13.3389225 C19.2718118,12.186142 19.5,10.9898345 19.5,9.75 C19.5,8.51016553 19.2718118,7.31385771 18.8154354,6.16107655 C18.3199062,4.90939935 17.5961908,3.80761003 16.644289,2.8557086 C15.6923834,1.9038051 14.5905946,1.18009027 13.3389225,0.684564114 C12.1861401,0.228188038 10.9898326,0 9.75,0 C8.51016617,0 7.31385835,0.228188038 6.16107655,0.684564114 C4.90940062,1.18009138 3.80761131,1.90380621 2.8557086,2.8557086 C1.90380653,3.80761067 1.1800917,4.90939999 0.684564114,6.16107655 C0.228188038,7.31385899 0,8.5101668 0,9.75 C0,10.9898338 0.228188038,12.1861413 0.684564114,13.3389225 C1.18009138,14.5905984 1.90380621,15.6923873 2.8557086,16.644289 C3.80761194,17.596192 4.90940126,18.3199075 6.16107655,18.8154354 C7.31385708,19.2718118 8.5101649,19.5 9.75,19.5 C10.9898338,19.5 12.1861413,19.2718118 13.3389225,18.8154354 C14.590601,18.3199062 15.6923898,17.5961908 16.644289,16.644289 C17.5961946,15.6923834 18.31991,14.5905946 18.8154354,13.3389225 Z M17.4207516,6.71321869 C17.8069172,7.68865077 18,8.7009112 18,9.75 C18,10.7990888 17.8069172,11.8113492 17.4207516,12.7867813 C17.0014579,13.8458913 16.3890839,14.7781741 15.5836296,15.5836296 C14.7781741,16.3890851 13.8458913,17.0014591 12.7867813,17.4207516 C11.8113486,17.8069172 10.7990882,18 9.75,18 C8.7009112,18 7.68865077,17.8069172 6.71321869,17.4207516 C5.65410773,17.0014579 4.72182449,16.3890839 3.91636896,15.5836296 C3.1109128,14.7781754 2.49853865,13.8458926 2.07924652,12.7867813 C1.69308217,11.8113505 1.5,10.7990901 1.5,9.75 C1.5,8.70091057 1.69308217,7.68865013 2.07924652,6.71321869 C2.49853897,5.65410805 3.11091312,4.7218248 3.91636896,3.91636896 C4.72182512,3.11091312 5.65410837,2.49853897 6.71321869,2.07924652 C7.6886495,1.69308217 8.70090993,1.5 9.75,1.5 C10.7990907,1.5 11.8113511,1.69308217 12.7867813,2.07924652 C13.845892,2.49853897 14.7781747,3.11091312 15.5836296,3.91636896 C16.3890851,4.72182417 17.0014591,5.65410741 17.4207516,6.71321869 Z" id="圆形-33（边框）"></path>
                        <path d="M9.4608079,4.49998569 C9.64336215,4.49998569 9.82107459,4.57044242 9.95016013,4.70058811 C10.0792447,4.83073381 10.1491276,5.00990772 10.1491276,5.19396162 C10.1491276,5.33871613 10.1065379,5.47774416 10.0253733,5.59391602 L9.95732985,5.67649174 L6.56701431,9.09198569 L14.5702318,9.09240437 C14.911531,9.09240437 15.1940847,9.34918416 15.2426374,9.6838296 L15.250008,9.78638029 C15.250008,10.1696526 14.9456609,10.4803562 14.5702318,10.4803562 L6.63101431,10.4799857 L9.93402778,13.8144436 C10.0634686,13.9449482 10.1347877,14.1219559 10.1347877,14.3060102 C10.1347877,14.4900627 10.0666967,14.6638155 9.93761264,14.7939615 C9.8085271,14.9241066 9.62902223,14.9999857 9.44646798,14.9999857 C9.30042497,14.9999857 9.1597741,14.9525803 9.04326417,14.8669834 L8.96070109,14.7957687 L4.45161857,10.2443151 C4.18281302,9.97330093 4.18281302,9.53389978 4.45161857,9.26288509 L8.97683345,4.70239533 C9.10591803,4.57224954 9.27825414,4.49998569 9.4608079,4.49998569 Z" id="shape" fill-rule="nonzero" transform="translate(9.750000, 9.749986) rotate(90.000000) translate(-9.750000, -9.749986) "></path>
                    </g>
                </g>
            </g>
        </g>
    </g>
</svg>