<?xml version="1.0" standalone="no"?>
<!DOCTYPE svg PUBLIC "-//W3C//DTD SVG 20010904//EN"
 "http://www.w3.org/TR/2001/REC-SVG-20010904/DTD/svg10.dtd">
<svg version="1.0" xmlns="http://www.w3.org/2000/svg"
 width="56.000000pt" height="56.000000pt" viewBox="0 0 56.000000 56.000000"
 preserveAspectRatio="xMidYMid meet">

<g transform="translate(0.000000,56.000000) scale(0.100000,-0.100000)"
fill="#000000" stroke="none">
<path d="M65 460 c-10 -16 4 -30 30 -30 13 0 26 -4 29 -8 3 -5 11 -51 17 -103
11 -80 16 -98 40 -121 25 -26 34 -28 104 -28 121 0 148 23 161 139 10 95 1
101 -149 101 l-119 0 -28 30 c-28 30 -72 40 -85 20z m344 -93 c14 -17 -3 -125
-23 -145 -17 -17 -92 -27 -140 -18 -46 9 -62 35 -71 114 l-7 62 115 0 c83 0
118 -4 126 -13z"/>
<path d="M173 114 c-3 -8 -1 -20 5 -26 15 -15 43 8 35 28 -7 19 -32 18 -40 -2z"/>
<path d="M373 114 c-3 -8 -1 -20 5 -26 15 -15 43 8 35 28 -7 19 -32 18 -40 -2z"/>
</g>
</svg>
