<svg xmlns="http://www.w3.org/2000/svg" xmlns:xlink="http://www.w3.org/1999/xlink" fill="none" version="1.1" width="15.85986328125" height="15.8599853515625" viewBox="0 0 15.85986328125 15.8599853515625"><g><g><path d="M7.27993,0L4.5,0C2.01472,0,0,2.01472,0,4.5L0,11.36C0,13.8453,2.01472,15.86,4.5,15.86L11.36,15.86C13.8453,15.86,15.86,13.8453,15.86,11.36L15.86,8.58C15.86,8.22101,15.569,7.93,15.21,7.93C14.851,7.93,14.56,8.22101,14.56,8.58L14.56,11.36Q14.56,12.6855,13.6227,13.6227Q12.6855,14.56,11.36,14.56L4.5,14.56Q3.17452,14.56,2.23726,13.6227Q1.3,12.6855,1.3,11.36L1.3,4.5Q1.3,3.17452,2.23726,2.23726Q3.17452,1.3,4.5,1.3L7.27993,1.3C7.63892,1.3,7.92993,1.00899,7.92993,0.65C7.92993,0.291015,7.63892,0,7.27993,0" fill-rule="evenodd" fill="#000000" fill-opacity="1"/></g><g><path d="M11.723250190734863,0.02338939718902111L14.796060190734863,0.02338939718902111C15.348090190734863,0.02338939718902111,15.795700190734863,0.4707073971890211,15.796060190734863,1.0227383971890212L15.796250190734863,1.309339397189021L15.796250190734863,4.095549397189021C15.796250190734863,4.450659397189021,15.508380190734863,4.738529397189021,15.153270190734863,4.738529397189021C14.798170190734863,4.738529397189021,14.510300190734863,4.450659397189021,14.510300190734863,4.095549397189021L14.510300190734863,2.3095493971890213L8.897840190734863,7.922009397189021C8.646742190734864,8.173109397189021,8.239634190734863,8.173109397189021,7.9885371907348635,7.922009397189021C7.737440890734863,7.670909397189021,7.737440790734864,7.263809397189021,7.9885371907348635,7.012709397189021L13.677920190734863,1.3233193971890211C13.623420190734862,1.314119397189021,13.567420190734865,1.309339397189021,13.510300190734863,1.309339397189021L11.723250190734863,1.309339397189021C11.368140190734863,1.309339397189021,11.080270190734863,1.021466397189021,11.080270190734863,0.6663623971890211C11.080270190734863,0.3112583971890211,11.368140190734863,0.02338939718902111,11.723250190734863,0.02338939718902111Z" fill-rule="evenodd" fill="#000000" fill-opacity="1"/></g></g></svg>