<svg xmlns="http://www.w3.org/2000/svg" xmlns:xlink="http://www.w3.org/1999/xlink" fill="none" version="1.1" width="24" height="24" viewBox="0 0 24 24"><g><g></g><g><g transform="matrix(0.7090456485748291,0.7051625847816467,-0.7090457677841187,0.705162525177002,14.188598033519384,-6.40898107301507)"><path d="M15.5699386439209,13.897012710571289L19.1473456439209,13.897012710571289C19.5177956439209,13.897012710571289,19.818105643920898,14.19732371057129,19.818105643920898,14.56777571057129C19.818105643920898,14.938232710571288,19.5177956439209,15.23854271057129,19.1473456439209,15.23854271057129L15.5699386439209,15.23854271057129C15.199486643920899,15.23854271057129,14.899175643920898,14.938232710571288,14.899175643920898,14.56777571057129C14.899175643920898,14.19732371057129,15.199486643920899,13.897012710571289,15.5699386439209,13.897012710571289" fill-rule="evenodd" fill="#CCCCCC" fill-opacity="1"/></g><g transform="matrix(0.7090456485748291,0.7051625847816467,-0.7090457677841187,0.705162525177002,5.928906290134108,-2.9931893819237274)"><path d="M7.2780101141815186,5.650550603866577L10.855417114181519,5.650550603866577C11.225867114181519,5.650550603866577,11.526177114181518,5.950861603866577,11.526177114181518,6.321313603866577C11.526177114181518,6.691770603866577,11.225867114181519,6.992080603866577,10.855417114181519,6.992080603866577L7.2780101141815186,6.992080603866577C6.907558114181518,6.992080603866577,6.6072471141815186,6.691770603866577,6.6072471141815186,6.321313603866577C6.6072471141815186,5.950861603866577,6.907558114181518,5.650550603866577,7.2780101141815186,5.650550603866577" fill-rule="evenodd" fill="#CCCCCC" fill-opacity="1"/></g><g transform="matrix(0.7090457081794739,-0.7051625847816467,0.7090457081794739,0.7051625847816467,-2.3984454791071244,12.546729435535497)"><path d="M14.650583251464845,9.119206428527832L18.227990251464846,9.119206428527832C18.598440251464844,9.119206428527832,18.898750251464843,9.419517428527833,18.898750251464843,9.789969428527833C18.898750251464843,10.160426428527831,18.598440251464844,10.460736428527833,18.227990251464846,10.460736428527833L14.650583251464845,10.460736428527833C14.280131251464844,10.460736428527833,13.979820251464844,10.160426428527831,13.979820251464844,9.789969428527833C13.979820251464844,9.419517428527833,14.280131251464844,9.119206428527832,14.650583251464845,9.119206428527832" fill-rule="evenodd" fill="#CCCCCC" fill-opacity="1"/></g><g transform="matrix(1,-4.214685134229512e-8,4.214685134229512e-8,1,-4.771747748044675e-7,1.580506925336067e-7)"><path d="M4.418919,11.321718215942383L8.0135,11.321718215942383C8.38293,11.321718215942383,8.68242,11.621203215942383,8.68242,11.990637215942384C8.68242,12.360068215942382,8.38293,12.659558215942383,8.0135,12.659558215942383L4.418919,12.659558215942383C4.049485,12.659558215942383,3.75,12.360068215942382,3.75,11.990637215942384C3.75,11.621203215942383,4.049485,11.321718215942383,4.418919,11.321718215942383" fill-rule="evenodd" fill="#CCCCCC" fill-opacity="1"/></g><g transform="matrix(1,-4.214685134229512e-8,4.214685134229512e-8,1,-4.771747743603783e-7,6.455878160949169e-7)"><path d="M15.986500176757813,11.321718215942383L19.581081176757813,11.321718215942383C19.950511176757814,11.321718215942383,20.250001176757813,11.621203215942383,20.250001176757813,11.990637215942384C20.250001176757813,12.360068215942382,19.950511176757814,12.659558215942383,19.581081176757813,12.659558215942383L15.986500176757813,12.659558215942383C15.617066176757813,12.659558215942383,15.317581176757812,12.360068215942382,15.317581176757812,11.990637215942384C15.317581176757812,11.621203215942383,15.617066176757813,11.321718215942383,15.986500176757813,11.321718215942383" fill-rule="evenodd" fill="#CCCCCC" fill-opacity="1"/></g><g transform="matrix(0,1,-1,0,16.477886199951172,-8.977886199951172)"><path d="M13.400489199951172,3.75L16.960686199951173,3.75C17.33215619995117,3.75,17.63329619995117,4.051134,17.63329619995117,4.422603C17.63329619995117,4.79407,17.33215619995117,5.09521,16.960686199951173,5.09521L13.400489199951172,5.09521C13.029020199951171,5.09521,12.727886199951172,4.79407,12.727886199951172,4.422603C12.727886199951172,4.051134,13.029020199951171,3.75,13.400489199951172,3.75" fill-rule="evenodd" fill="#CCCCCC" fill-opacity="1"/></g><g transform="matrix(0,1,-1,0,28.072481155395508,2.616708755493164)"><path d="M13.400489199951172,15.344594955444336L16.960686199951173,15.344594955444336C17.33215619995117,15.344594955444336,17.63329619995117,15.645728955444335,17.63329619995117,16.017197955444335C17.63329619995117,16.388664955444337,17.33215619995117,16.689804955444338,16.960686199951173,16.689804955444338L13.400489199951172,16.689804955444338C13.029020199951171,16.689804955444338,12.727886199951172,16.388664955444337,12.727886199951172,16.017197955444335C12.727886199951172,15.645728955444335,13.029020199951171,15.344594955444336,13.400489199951172,15.344594955444336" fill-rule="evenodd" fill="#CCCCCC" fill-opacity="1"/></g><g transform="matrix(0.7090456485748291,-0.7051625847816467,0.7090457677841187,0.705162525177002,-10.659092147220264,9.128622731813984)"><path d="M6.355371101844788,17.365668296813965L9.932778101844788,17.365668296813965C10.303228101844788,17.365668296813965,10.603538101844787,17.665979296813966,10.603538101844787,18.036431296813966C10.603538101844787,18.406888296813964,10.303228101844788,18.707198296813964,9.932778101844788,18.707198296813964L6.355371101844788,18.707198296813964C5.984919101844787,18.707198296813964,5.684608101844788,18.406888296813964,5.684608101844788,18.036431296813966C5.684608101844788,17.665979296813966,5.984919101844787,17.365668296813965,6.355371101844788,17.365668296813965" fill-rule="evenodd" fill="#CCCCCC" fill-opacity="1"/></g></g></g></svg>