<?xml version="1.0" encoding="UTF-8"?>
<svg width="20px" height="20px" viewBox="0 0 20 20" version="1.1" xmlns="http://www.w3.org/2000/svg" xmlns:xlink="http://www.w3.org/1999/xlink">
    <title>电子合同</title>
    <g id="视觉稿" stroke="none" stroke-width="1" fill="none" fill-rule="evenodd">
        <g id="容器-286" transform="translate(-1382.000000, -38.000000)" fill="#1F1F1F" fill-rule="nonzero">
            <g id="固定模块" transform="translate(24.000000, 24.000000)">
                <g id="头像" transform="translate(1344.000000, 0.000000)">
                    <g id="电子合同" transform="translate(10.000000, 10.000000)">
                        <path d="M13.9999981,4.75 C15.4497464,4.75 16.6871837,5.26256307 17.7123098,6.28768921 C18.7374366,7.31281598 19.25,8.55025291 19.25,10 C19.25,11.538125 18.7294077,13.454648 17.6882231,15.7495689 L19.5,15.75 C20.5355326,15.75 21.4194158,16.1161165 22.1516495,16.8483496 C22.8838832,17.5805823 23.25,18.4644658 23.25,19.5 C23.25,20.5355339 22.8838832,21.4194174 22.1516495,22.1516504 C21.4194158,22.8838835 20.5355326,23.25 19.5,23.25 L8.5,23.25 C7.46446594,23.25 6.58058246,22.8838835 5.84834957,22.1516504 C5.11611652,21.4194174 4.75,20.5355339 4.75,19.5 C4.75,18.4644663 5.11611652,17.5805828 5.84834957,16.8483496 C6.58058262,16.1161165 7.46446609,15.75 8.5,15.75 L10.3119293,15.7499027 C9.27064312,13.4548308 8.75,11.5381966 8.75,10 C8.75,8.5502526 9.26256311,7.31281571 10.2876893,6.28768933 C11.3128154,5.26256311 12.5502516,4.75 13.9999981,4.75 Z M19.5,17.25 L8.5,17.25 C7.87867959,17.25 7.34834949,17.4696699 6.9090097,17.9090097 C6.4696699,18.3483495 6.25,18.8786796 6.25,19.5 C6.25,20.1213201 6.4696699,20.6516501 6.9090097,21.0909901 C7.34834949,21.53033 7.87867959,21.75 8.5,21.75 L19.5,21.75 C20.1213201,21.75 20.6516495,21.53033 21.0909882,21.0909901 C21.5303294,20.6516492 21.75,20.1213191 21.75,19.5 C21.75,18.8786805 21.5303294,18.3483504 21.0909882,17.9090097 C20.6516495,17.4696699 20.1213201,17.25 19.5,17.25 Z M13.9999981,6.25 C12.9644655,6.25 12.0805826,6.61611652 11.3483496,7.34834957 C10.6161165,8.0805823 10.25,8.96446578 10.25,10 C10.25,11.4554559 10.8226387,13.3722729 11.9679162,15.7504512 L16.0320838,15.7504513 C17.1773613,13.3722736 17.75,11.4554565 17.75,10 C17.75,8.96446609 17.3838833,8.08058262 16.65165,7.34834957 C15.9194166,6.61611652 15.0355326,6.25 13.9999981,6.25 Z" id="shape"></path>
                    </g>
                </g>
            </g>
        </g>
    </g>
</svg>