<svg width="23" height="25" viewBox="0 0 23 25" fill="none" xmlns="http://www.w3.org/2000/svg">
<g clip-path="url(#clip0_8543_182)">
<path d="M18.6523 23.3955C18.9453 23.5518 19.2969 23.4541 19.4629 23.1709L20.7324 20.9639C20.9082 20.6709 20.8105 20.3291 20.5273 20.1533C20.2246 19.9776 19.8926 20.0752 19.7168 20.3779L18.4375 22.5947C18.2715 22.8779 18.3496 23.2197 18.6523 23.3955Z" fill="white"/>
<path d="M16.7578 20.6611C17.0508 20.8271 17.4023 20.7294 17.5684 20.4364L18.8379 18.2392C19.0137 17.9364 18.916 17.5946 18.6328 17.4189C18.3301 17.2528 17.998 17.3505 17.8223 17.6435L16.543 19.87C16.377 20.1532 16.4551 20.495 16.7578 20.6611Z" fill="white"/>
<path d="M14.1309 19.4893H11.9141L11.8945 19.9287L13.0859 17.6436C13.2031 17.4287 13.1152 17.2627 12.9004 17.2627H10.7812C10.498 17.2627 10.4004 17.3604 10.3125 17.5654L8.98439 20.5928C8.87696 20.8369 8.98439 20.9834 9.23829 20.9834H11.0449L11.1719 20.4072L9.59962 24.2256C9.55079 24.3526 9.58009 24.46 9.66798 24.499C9.75587 24.5381 9.86329 24.5088 9.97071 24.4014L14.2871 19.9776C14.4922 19.7627 14.4141 19.4893 14.1309 19.4893Z" fill="white"/>
<path d="M5.07812 23.3955C5.37109 23.5518 5.72266 23.4541 5.88867 23.1709L7.1582 20.9639C7.33398 20.6709 7.23633 20.3291 6.94336 20.1533C6.65039 19.9776 6.31836 20.0752 6.14258 20.3779L4.85352 22.5947C4.69727 22.8779 4.77539 23.2197 5.07812 23.3955Z" fill="white"/>
<path d="M3.18359 20.6611C3.47656 20.8271 3.82812 20.7294 3.99414 20.4364L5.26367 18.2392C5.43945 17.9364 5.3418 17.5946 5.04883 17.4189C4.75586 17.2528 4.42383 17.3505 4.24805 17.6435L2.96875 19.87C2.80273 20.1532 2.88086 20.495 3.18359 20.6611Z" fill="white"/>
<path d="M5.22461 15.8662H17.3438C20.5469 15.8662 22.9297 13.4346 22.9297 10.4268C22.9297 7.31152 20.3906 5.03613 17.0801 5.03613C15.8594 2.62402 13.5938 1.07129 10.7715 1.07129C7.09961 1.07129 4.07227 3.95215 3.75 7.57519C1.98242 8.09277 0.634766 9.62598 0.634766 11.6865C0.634766 14.001 2.31445 15.8662 5.22461 15.8662ZM5.20508 14.3037C3.20312 14.3037 2.19727 13.1807 2.19727 11.7354C2.19727 10.5635 2.88086 9.50879 4.54102 9.06933C5.07812 8.92285 5.27344 8.66894 5.32227 8.12207C5.54688 4.92871 7.93945 2.63379 10.7715 2.63379C12.9688 2.63379 14.6973 3.84473 15.752 6.00293C15.9766 6.48144 16.2695 6.64746 16.8457 6.64746C19.7363 6.64746 21.3672 8.38574 21.3672 10.4658C21.3672 12.5947 19.668 14.3037 17.4414 14.3037H5.20508Z" fill="white"/>
</g>
<defs>
<clipPath id="clip0_8543_182">
<rect width="22.9297" height="24.5155" fill="white"/>
</clipPath>
</defs>
</svg>
